<?xml version="1.0" encoding="utf-8"?>
<!-- Generator: Adobe Illustrator 24.2.0, SVG Export Plug-In . SVG Version: 6.00 Build 0)  -->
<svg version="1.1" id="Layer_1" xmlns="http://www.w3.org/2000/svg" xmlns:xlink="http://www.w3.org/1999/xlink" x="0px" y="0px"
	 viewBox="0 0 138 155" style="enable-background:new 0 0 138 155;" xml:space="preserve">
<style type="text/css">
	.st0{fill:#FFFFFF;}
</style>
<path class="st0" d="M64.5,0L33.8,27.9V16l-16.6-0.9v28.1L0,58.6l6.7,13.8l7.6-4.7v70.5L64.8,155V0.3L64.5,0z"/>
<path class="st0" d="M93.1,62.4c0,3.5-1.8,6.2-4.1,6l-11.8-1.1c-2.6-0.2-4.7-3.6-4.7-7.4V41.4c0-3.8,2.1-6.5,4.7-5.9L89,38.1
	c2.3,0.5,4.1,3.8,4.1,7.3V62.4z"/>
<path class="st0" d="M118,65.5c0,3.1-1.5,5.6-3.3,5.4l-9.3-0.9c-2-0.2-3.7-3.1-3.7-6.5V47.1c0-3.4,1.7-5.8,3.7-5.3l9.3,2.1
	c1.8,0.4,3.3,3.3,3.3,6.4V65.5z"/>
<path class="st0" d="M138,67.9c0,2.8-1.2,5-2.7,4.9l-7.6-0.7c-1.6-0.2-3-2.8-3-5.8V51.6c0-3,1.3-5.2,3-4.8l7.6,1.7
	c1.5,0.3,2.7,2.9,2.7,5.8V67.9z"/>
<path class="st0" d="M93.1,103.3c0,3.5-1.8,6.5-4.1,6.7l-11.8,0.9c-2.6,0.2-4.7-2.7-4.7-6.6V85.8c0-3.8,2.1-6.8,4.7-6.7L89,79.7
	c2.3,0.1,4.1,3,4.1,6.6V103.3z"/>
<path class="st0" d="M118,102c0,3.1-1.5,5.8-3.3,6l-9.3,0.7c-2,0.2-3.7-2.5-3.7-5.8V86.5c0-3.4,1.7-6.1,3.7-6l9.3,0.5
	c1.8,0.1,3.3,2.7,3.3,5.9V102z"/>
<path class="st0" d="M138,101c0,2.8-1.2,5.2-2.7,5.4l-7.6,0.6c-1.6,0.1-3-2.2-3-5.3V87c0-3,1.3-5.4,3-5.4l7.6,0.4
	c1.5,0.1,2.7,2.4,2.7,5.3V101z"/>
<path class="st0" d="M93.1,144.1c0,3.5-1.8,6.8-4.1,7.4l-11.8,3c-2.6,0.7-4.7-1.9-4.7-5.7v-18.5c0-3.8,2.1-7.2,4.7-7.5l11.8-1.5
	c2.3-0.3,4.1,2.3,4.1,5.8V144.1z"/>
<path class="st0" d="M118,138.5c0,3.1-1.5,6.1-3.3,6.5l-9.3,2.4c-2,0.5-3.7-1.8-3.7-5.2v-16.4c0-3.4,1.7-6.4,3.7-6.6l9.3-1.2
	c1.8-0.2,3.3,2.1,3.3,5.3V138.5z"/>
<path class="st0" d="M138,134c0,2.8-1.2,5.5-2.7,5.8l-7.6,1.9c-1.6,0.4-3-1.7-3-4.8v-14.7c0-3,1.3-5.7,3-5.9l7.6-1
	c1.5-0.2,2.7,2,2.7,4.8V134z"/>
</svg>
